<svg xmlns="http://www.w3.org/2000/svg" viewBox="0 0 16 16" width="128" height="128" shape-rendering="crispEdges"><rect width="16" height="16" fill="#cfe8ff"/><rect x="7" y="3" width="2" height="1" fill="#2b2236"/><rect x="4" y="4" width="3" height="1" fill="#2b2236"/><rect x="7" y="4" width="2" height="1" fill="#f7d24a"/><rect x="9" y="4" width="3" height="1" fill="#2b2236"/><rect x="3" y="5" width="1" height="1" fill="#2b2236"/><rect x="4" y="5" width="8" height="1" fill="#f7d24a"/><rect x="12" y="5" width="1" height="1" fill="#2b2236"/><rect x="2" y="6" width="1" height="1" fill="#2b2236"/><rect x="3" y="6" width="10" height="1" fill="#f7d24a"/><rect x="13" y="6" width="1" height="1" fill="#2b2236"/><rect x="1" y="7" width="1" height="1" fill="#2b2236"/><rect x="2" y="7" width="12" height="1" fill="#f7d24a"/><rect x="14" y="7" width="1" height="1" fill="#2b2236"/><rect x="1" y="8" width="1" height="1" fill="#2b2236"/><rect x="2" y="8" width="3" height="1" fill="#f7d24a"/><rect x="5" y="8" width="1" height="1" fill="#241c2e"/><rect x="6" y="8" width="4" height="1" fill="#f7d24a"/><rect x="10" y="8" width="1" height="1" fill="#241c2e"/><rect x="11" y="8" width="3" height="1" fill="#f7d24a"/><rect x="14" y="8" width="1" height="1" fill="#2b2236"/><rect x="1" y="9" width="1" height="1" fill="#2b2236"/><rect x="2" y="9" width="3" height="1" fill="#f7d24a"/><rect x="5" y="9" width="1" height="1" fill="#241c2e"/><rect x="6" y="9" width="4" height="1" fill="#f7d24a"/><rect x="10" y="9" width="1" height="1" fill="#241c2e"/><rect x="11" y="9" width="3" height="1" fill="#f7d24a"/><rect x="14" y="9" width="1" height="1" fill="#2b2236"/><rect x="1" y="10" width="1" height="1" fill="#2b2236"/><rect x="2" y="10" width="2" height="1" fill="#f7d24a"/><rect x="4" y="10" width="2" height="1" fill="#f9a03f"/><rect x="6" y="10" width="1" height="1" fill="#b85c10"/><rect x="7" y="10" width="2" height="1" fill="#f9a03f"/><rect x="9" y="10" width="1" height="1" fill="#b85c10"/><rect x="10" y="10" width="2" height="1" fill="#f9a03f"/><rect x="12" y="10" width="2" height="1" fill="#f7d24a"/><rect x="14" y="10" width="1" height="1" fill="#2b2236"/><rect x="1" y="11" width="1" height="1" fill="#2b2236"/><rect x="2" y="11" width="2" height="1" fill="#f7d24a"/><rect x="4" y="11" width="8" height="1" fill="#f5851f"/><rect x="12" y="11" width="2" height="1" fill="#f7d24a"/><rect x="14" y="11" width="1" height="1" fill="#2b2236"/><rect x="1" y="12" width="1" height="1" fill="#2b2236"/><rect x="2" y="12" width="2" height="1" fill="#f7d24a"/><rect x="4" y="12" width="8" height="1" fill="#f5851f"/><rect x="12" y="12" width="2" height="1" fill="#f7d24a"/><rect x="14" y="12" width="1" height="1" fill="#2b2236"/><rect x="2" y="13" width="1" height="1" fill="#2b2236"/><rect x="3" y="13" width="10" height="1" fill="#f7d24a"/><rect x="13" y="13" width="1" height="1" fill="#2b2236"/><rect x="3" y="14" width="1" height="1" fill="#2b2236"/><rect x="4" y="14" width="8" height="1" fill="#f7d24a"/><rect x="12" y="14" width="1" height="1" fill="#2b2236"/><rect x="4" y="15" width="8" height="1" fill="#2b2236"/></svg>
