<svg xmlns="http://www.w3.org/2000/svg" viewBox="0 0 16 16" width="128" height="128" shape-rendering="crispEdges"><rect width="16" height="16" fill="#e8d9ff"/><rect x="3" y="0" width="1" height="1" fill="#2b2236"/><rect x="4" y="0" width="3" height="1" fill="#f4f0f4"/><rect x="7" y="0" width="2" height="1" fill="#2b2236"/><rect x="9" y="0" width="3" height="1" fill="#f4f0f4"/><rect x="12" y="0" width="1" height="1" fill="#2b2236"/><rect x="3" y="1" width="1" height="1" fill="#2b2236"/><rect x="4" y="1" width="1" height="1" fill="#f4f0f4"/><rect x="5" y="1" width="1" height="1" fill="#ffb3c1"/><rect x="6" y="1" width="1" height="1" fill="#f4f0f4"/><rect x="7" y="1" width="2" height="1" fill="#2b2236"/><rect x="9" y="1" width="1" height="1" fill="#f4f0f4"/><rect x="10" y="1" width="1" height="1" fill="#ffb3c1"/><rect x="11" y="1" width="1" height="1" fill="#f4f0f4"/><rect x="12" y="1" width="1" height="1" fill="#2b2236"/><rect x="3" y="2" width="1" height="1" fill="#2b2236"/><rect x="4" y="2" width="1" height="1" fill="#f4f0f4"/><rect x="5" y="2" width="1" height="1" fill="#ffb3c1"/><rect x="6" y="2" width="1" height="1" fill="#f4f0f4"/><rect x="7" y="2" width="2" height="1" fill="#2b2236"/><rect x="9" y="2" width="1" height="1" fill="#f4f0f4"/><rect x="10" y="2" width="1" height="1" fill="#ffb3c1"/><rect x="11" y="2" width="1" height="1" fill="#f4f0f4"/><rect x="12" y="2" width="1" height="1" fill="#2b2236"/><rect x="3" y="3" width="1" height="1" fill="#2b2236"/><rect x="4" y="3" width="1" height="1" fill="#f4f0f4"/><rect x="5" y="3" width="1" height="1" fill="#ffb3c1"/><rect x="6" y="3" width="1" height="1" fill="#f4f0f4"/><rect x="7" y="3" width="2" height="1" fill="#2b2236"/><rect x="9" y="3" width="1" height="1" fill="#f4f0f4"/><rect x="10" y="3" width="1" height="1" fill="#ffb3c1"/><rect x="11" y="3" width="1" height="1" fill="#f4f0f4"/><rect x="12" y="3" width="1" height="1" fill="#2b2236"/><rect x="3" y="4" width="1" height="1" fill="#2b2236"/><rect x="4" y="4" width="1" height="1" fill="#f4f0f4"/><rect x="5" y="4" width="1" height="1" fill="#ffb3c1"/><rect x="6" y="4" width="1" height="1" fill="#f4f0f4"/><rect x="7" y="4" width="2" height="1" fill="#2b2236"/><rect x="9" y="4" width="1" height="1" fill="#f4f0f4"/><rect x="10" y="4" width="1" height="1" fill="#ffb3c1"/><rect x="11" y="4" width="1" height="1" fill="#f4f0f4"/><rect x="12" y="4" width="1" height="1" fill="#2b2236"/><rect x="3" y="5" width="1" height="1" fill="#2b2236"/><rect x="4" y="5" width="8" height="1" fill="#f4f0f4"/><rect x="12" y="5" width="1" height="1" fill="#2b2236"/><rect x="2" y="6" width="1" height="1" fill="#2b2236"/><rect x="3" y="6" width="10" height="1" fill="#f4f0f4"/><rect x="13" y="6" width="1" height="1" fill="#2b2236"/><rect x="1" y="7" width="1" height="1" fill="#2b2236"/><rect x="2" y="7" width="12" height="1" fill="#f4f0f4"/><rect x="14" y="7" width="1" height="1" fill="#2b2236"/><rect x="1" y="8" width="1" height="1" fill="#2b2236"/><rect x="2" y="8" width="3" height="1" fill="#f4f0f4"/><rect x="5" y="8" width="1" height="1" fill="#241c2e"/><rect x="6" y="8" width="4" height="1" fill="#f4f0f4"/><rect x="10" y="8" width="1" height="1" fill="#241c2e"/><rect x="11" y="8" width="3" height="1" fill="#f4f0f4"/><rect x="14" y="8" width="1" height="1" fill="#2b2236"/><rect x="1" y="9" width="1" height="1" fill="#2b2236"/><rect x="2" y="9" width="3" height="1" fill="#f4f0f4"/><rect x="5" y="9" width="1" height="1" fill="#241c2e"/><rect x="6" y="9" width="4" height="1" fill="#f4f0f4"/><rect x="10" y="9" width="1" height="1" fill="#241c2e"/><rect x="11" y="9" width="3" height="1" fill="#f4f0f4"/><rect x="14" y="9" width="1" height="1" fill="#2b2236"/><rect x="1" y="10" width="1" height="1" fill="#2b2236"/><rect x="2" y="10" width="1" height="1" fill="#f4f0f4"/><rect x="3" y="10" width="1" height="1" fill="#ffc4d0"/><rect x="4" y="10" width="3" height="1" fill="#f4f0f4"/><rect x="7" y="10" width="2" height="1" fill="#ff8fa3"/><rect x="9" y="10" width="3" height="1" fill="#f4f0f4"/><rect x="12" y="10" width="1" height="1" fill="#ffc4d0"/><rect x="13" y="10" width="1" height="1" fill="#f4f0f4"/><rect x="14" y="10" width="1" height="1" fill="#2b2236"/><rect x="1" y="11" width="1" height="1" fill="#2b2236"/><rect x="2" y="11" width="5" height="1" fill="#f4f0f4"/><rect x="7" y="11" width="2" height="1" fill="#241c2e"/><rect x="9" y="11" width="5" height="1" fill="#f4f0f4"/><rect x="14" y="11" width="1" height="1" fill="#2b2236"/><rect x="1" y="12" width="1" height="1" fill="#2b2236"/><rect x="2" y="12" width="5" height="1" fill="#f4f0f4"/><rect x="7" y="12" width="2" height="1" fill="#ffffff"/><rect x="9" y="12" width="5" height="1" fill="#f4f0f4"/><rect x="14" y="12" width="1" height="1" fill="#2b2236"/><rect x="2" y="13" width="1" height="1" fill="#2b2236"/><rect x="3" y="13" width="4" height="1" fill="#f4f0f4"/><rect x="7" y="13" width="1" height="1" fill="#dcd6dc"/><rect x="8" y="13" width="1" height="1" fill="#ffffff"/><rect x="9" y="13" width="4" height="1" fill="#f4f0f4"/><rect x="13" y="13" width="1" height="1" fill="#2b2236"/><rect x="3" y="14" width="1" height="1" fill="#2b2236"/><rect x="4" y="14" width="8" height="1" fill="#f4f0f4"/><rect x="12" y="14" width="1" height="1" fill="#2b2236"/><rect x="4" y="15" width="8" height="1" fill="#2b2236"/></svg>
